<svg width="872" height="664" viewBox="0 0 872 664" fill="none" xmlns="http://www.w3.org/2000/svg">
<g clip-path="url(#clip0_8_17)">
<path d="M598.694 161.706C598.694 225.411 503.061 413.282 448.229 515.764C444.51 522.717 439.075 528.51 432.485 532.543C425.895 536.575 418.39 538.702 410.746 538.702C403.102 538.702 395.597 536.575 389.007 532.543C382.417 528.51 376.982 522.717 373.263 515.764C318.431 413.282 222.798 225.411 222.798 161.706C222.798 72.3982 306.945 3.05176e-05 410.746 3.05176e-05C514.547 3.05176e-05 598.694 72.3982 598.694 161.706Z" fill="#E97A24"/>
<path d="M411.628 266.447C468.158 266.447 513.985 218.73 513.985 159.868C513.985 101.006 468.158 53.2895 411.628 53.2895C355.099 53.2895 309.272 101.006 309.272 159.868C309.272 218.73 355.099 266.447 411.628 266.447Z" fill="white"/>
<path d="M-15.4985 256.303C18.3606 256.303 45.8089 227.722 45.8089 192.466C45.8089 157.21 18.3606 128.63 -15.4985 128.63C-49.3577 128.63 -76.8059 157.21 -76.8059 192.466C-76.8059 227.722 -49.3577 256.303 -15.4985 256.303Z" fill="#FF6584"/>
<path d="M410.746 664C492.707 664 559.149 658.659 559.149 652.071C559.149 645.483 492.707 640.143 410.746 640.143C328.785 640.143 262.343 645.483 262.343 652.071C262.343 658.659 328.785 664 410.746 664Z" fill="#E97A24"/>
<path d="M762.39 432.802C484.634 324.386 145.869 430.083 -49.7201 646.291C-50.8319 647.503 -51.9437 648.735 -53.0202 649.966H-56.0027C-54.9791 648.735 -53.9203 647.503 -52.8791 646.291C146.769 413.636 481.034 320.913 762.39 432.802Z" fill="#3F3D56"/>
<path d="M838.293 468.763C813.742 455.13 788.391 443.119 762.39 432.802C788.459 442.949 813.82 454.965 838.293 468.763Z" fill="#3F3D56"/>
<path opacity="0.4" d="M686.277 360.595C707.641 360.595 724.961 342.562 724.961 320.316C724.961 298.07 707.641 280.036 686.277 280.036C664.912 280.036 647.593 298.07 647.593 320.316C647.593 342.562 664.912 360.595 686.277 360.595Z" fill="#E97A24"/>
<path d="M690.584 630.141C693.574 641.647 703.813 648.774 703.813 648.774C703.813 648.774 709.206 637.244 706.216 625.737C703.227 614.231 692.987 607.104 692.987 607.104C692.987 607.104 687.595 618.634 690.584 630.141Z" fill="#3F3D56"/>
<path d="M694.977 627.668C703.18 635.982 704.182 648.764 704.182 648.764C704.182 648.764 691.884 648.065 683.681 639.75C675.478 631.435 674.476 618.654 674.476 618.654C674.476 618.654 686.774 619.353 694.977 627.668Z" fill="#E97A24"/>
<path d="M334.995 543.647L327.694 530.977L395.839 470.157C446.218 444.908 506.945 452.193 571.07 470.157V487.896L507.792 558.853L434.778 574.057L334.995 543.647Z" fill="#3F3D56"/>
<path d="M601.233 505.848C613.334 491.833 615.015 478.505 601.233 466.199H578.291V478.702L571.07 470.157L512.659 530.977L502.923 541.113L490.755 591.797L512.659 647.547H624.611V533.511L601.233 505.848Z" fill="#CCCCCC"/>
<path d="M327.694 530.977H512.659V647.547H327.694C305.317 622.338 316.942 576.391 327.694 530.977Z" fill="#F2F2F2"/>
<path d="M487.105 567.722H448.165V603.2H487.105V567.722Z" fill="#3F3D56"/>
<path d="M432.345 566.455H398.273V647.547H432.345V566.455Z" fill="#CCCCCC"/>
<path d="M359.333 579.126V566.456H344.731V579.126H358.115H359.333Z" fill="#3F3D56"/>
<path d="M358.115 589.262H344.731V601.934H359.333V589.262H358.115Z" fill="#3F3D56"/>
<path d="M383.67 566.455H369.068V579.126H383.67V566.455Z" fill="#3F3D56"/>
<path d="M383.67 589.262H369.068V601.933H383.67V589.262Z" fill="#3F3D56"/>
<path d="M564.985 580.394V567.722H550.381V580.394H563.767H564.985Z" fill="#3F3D56"/>
<path d="M563.767 590.53H550.381V603.2H564.985V590.53H563.767Z" fill="#3F3D56"/>
<path d="M589.322 567.722H574.719V580.393H589.322V567.722Z" fill="#3F3D56"/>
<path d="M589.322 590.529H574.719V603.2H589.322V590.529Z" fill="#3F3D56"/>
<path d="M5.65086 330.78L-6.51721 320.643L61.6275 257.289H234.423V313.041L122.471 391.6L5.65086 330.78Z" fill="#3F3D56"/>
<path d="M265.927 292.827V258.554H242.985V266.948L234.423 257.288L178.446 320.642L156.543 335.848L122.581 594.215L173.799 647.547H292.833C311.071 552.016 325.534 453.878 292.833 323.176L265.927 292.827Z" fill="#CCCCCC"/>
<path d="M-6.51814 320.643H178.447V647.547H-6.51814C-26.7585 520.548 -36.6436 402.773 -6.51814 320.643Z" fill="#F2F2F2"/>
<path d="M99.3498 567.722H65.2773V647.547H99.3498V567.722Z" fill="#CCCCCC"/>
<path d="M28.7711 590.53V577.86H14.1694V590.53H27.5552H28.7711Z" fill="#3F3D56"/>
<path d="M27.5552 600.666H14.1694V613.338H28.7711V600.666H27.5552Z" fill="#3F3D56"/>
<path d="M53.1087 577.858H38.5062V590.529H53.1087V577.858Z" fill="#3F3D56"/>
<path d="M127.339 600.666H113.953V613.338H128.555V600.666H127.339Z" fill="#3F3D56"/>
<path d="M152.892 577.858H138.29V590.529H152.892V577.858Z" fill="#3F3D56"/>
<path d="M152.892 600.666H138.29V613.336H152.892V600.666Z" fill="#3F3D56"/>
<path d="M230.772 337.115V324.445H216.17V337.115H229.556H230.772Z" fill="#3F3D56"/>
<path d="M229.556 347.252H216.17V359.922H230.772V347.252H229.556Z" fill="#3F3D56"/>
<path d="M255.11 324.444H240.507V337.115H255.11V324.444Z" fill="#3F3D56"/>
<path d="M255.11 347.251H240.507V359.922H255.11V347.251Z" fill="#3F3D56"/>
<path d="M230.772 408.072V395.4H216.17V408.072H229.556H230.772Z" fill="#3F3D56"/>
<path d="M229.556 418.208H216.17V430.878H230.772V418.208H229.556Z" fill="#3F3D56"/>
<path d="M255.11 395.4H240.507V408.071H255.11V395.4Z" fill="#3F3D56"/>
<path d="M255.11 418.207H240.507V430.878H255.11V418.207Z" fill="#3F3D56"/>
<path d="M230.772 479.028V466.356H216.17V479.028H229.556H230.772Z" fill="#3F3D56"/>
<path d="M229.556 489.164H216.17V501.834H230.772V489.164H229.556Z" fill="#3F3D56"/>
<path d="M255.11 466.356H240.507V479.027H255.11V466.356Z" fill="#3F3D56"/>
<path d="M255.11 489.163H240.507V501.834H255.11V489.163Z" fill="#3F3D56"/>
<path d="M230.772 549.984V537.312H216.17V549.984H229.556H230.772Z" fill="#3F3D56"/>
<path d="M229.556 560.12H216.17V572.79H230.772V560.12H229.556Z" fill="#3F3D56"/>
<path d="M255.11 537.312H240.507V549.983H255.11V537.312Z" fill="#3F3D56"/>
<path d="M255.11 560.119H240.507V572.79H255.11V560.119Z" fill="#3F3D56"/>
<path d="M14.1687 337.115H155.326V367.524C110.081 354.523 62.8987 355.455 14.1687 367.524V337.115Z" fill="#3F3D56"/>
<path d="M14.1687 397.934C58.2255 411.45 105.278 411.45 155.326 397.934V428.344H14.1687V397.934Z" fill="#3F3D56"/>
<path d="M14.1687 458.754H155.326V489.163C107.22 473.169 60.1179 472.415 14.1687 489.163V458.754Z" fill="#3F3D56"/>
<path d="M14.1687 519.573C60.2045 538.047 107.299 537.278 155.326 519.573V549.983H14.1687V519.573Z" fill="#3F3D56"/>
<path d="M772.82 466.742H872V516.503L863.141 519.389L833.669 528.967L787.432 517.814L741.248 506.67L716.859 500.787L704.682 496.096C714.812 481.623 733.236 470.241 772.82 466.742Z" fill="#3F3D56"/>
<path d="M872 496.096V647.55H704.682C704.629 647.457 704.594 647.371 704.541 647.278V647.269C704.501 647.164 704.454 647.061 704.4 646.963C701.788 641.489 699.447 636.029 697.376 630.583C679.817 584.5 681.723 539.634 704.682 496.096H872Z" fill="#F2F2F2"/>
<path d="M810.551 567.722H776.478V647.547H810.551V567.722Z" fill="#CCCCCC"/>
<path d="M739.972 590.53V577.86H725.37V590.53H738.756H739.972Z" fill="#3F3D56"/>
<path d="M738.756 600.666H725.37V613.338H739.972V600.666H738.756Z" fill="#3F3D56"/>
<path d="M764.31 577.858H749.707V590.529H764.31V577.858Z" fill="#3F3D56"/>
<path d="M764.31 600.666H749.707V613.336H764.31V600.666Z" fill="#3F3D56"/>
<path d="M839.756 590.53V577.86H825.154V590.53H838.54H839.756Z" fill="#3F3D56"/>
<path d="M838.54 600.666H825.154V613.338H839.756V600.666H838.54Z" fill="#3F3D56"/>
<path d="M864.093 577.858H849.491V590.529H864.093V577.858Z" fill="#3F3D56"/>
<path d="M864.093 600.666H849.491V613.336H864.093V600.666Z" fill="#3F3D56"/>
<path d="M741.253 407.94H762.228C782.917 407.94 802.758 416.497 817.387 431.73C832.016 446.962 840.234 467.621 840.234 489.163H741.253V407.94Z" fill="#3F3D56"/>
<path d="M105.937 187.432H126.912C147.601 187.432 167.442 195.989 182.071 211.222C196.699 226.454 204.918 247.113 204.918 268.655H105.937V187.432Z" fill="#3F3D56"/>
<path d="M441.242 391.402H462.218C482.906 391.402 502.747 399.959 517.376 415.192C532.005 430.424 540.223 451.083 540.223 472.625H441.242V391.402Z" fill="#3F3D56"/>
<path d="M840.234 519.573H741.253V549.983H840.234V519.573Z" fill="#3F3D56"/>
<path d="M872 646.291H-133.917V649.966H872V646.291Z" fill="#3F3D56"/>
<path d="M311.811 501.114H308.282V646.282H311.811V501.114Z" fill="#3F3D56"/>
<path d="M344.385 519.614C347.566 570.268 310.311 611.692 310.311 611.692C310.311 611.692 275.648 570.707 275.423 519.945C275.199 469.184 309.497 427.868 309.497 427.868C306.153 441.783 341.811 478.629 344.385 519.614Z" fill="#E97A24"/>
<path d="M82.5012 265.141L235.814 257.331L300.127 313.228L288.757 323.917L186.914 321.53L82.5012 265.141Z" fill="#3F3D56"/>
<path d="M417.807 476.461L571.119 468.651L635.433 524.548L624.062 535.237L522.219 532.85L417.807 476.461Z" fill="#3F3D56"/>
</g>
<defs>
<clipPath id="clip0_8_17">
<rect width="1011" height="664" fill="white" transform="translate(-139)"/>
</clipPath>
</defs>
</svg>
