<svg id="visual" viewBox="0 0 1920 1080" width="1920" height="1080" xmlns="http://www.w3.org/2000/svg" xmlns:xlink="http://www.w3.org/1999/xlink" version="1.1"><rect x="0" y="0" width="1920" height="1080" fill="#ffffff"></rect><defs><linearGradient id="grad1_0" x1="43.8%" y1="100%" x2="100%" y2="0%"><stop offset="14.444444444444446%" stop-color="#ffffff" stop-opacity="1"></stop><stop offset="85.55555555555554%" stop-color="#ffffff" stop-opacity="1"></stop></linearGradient></defs><defs><linearGradient id="grad2_0" x1="0%" y1="100%" x2="56.3%" y2="0%"><stop offset="14.444444444444446%" stop-color="#ffffff" stop-opacity="1"></stop><stop offset="85.55555555555554%" stop-color="#ffffff" stop-opacity="1"></stop></linearGradient></defs><g transform="translate(1920, 1080)"><path d="M-432 0C-425.9 -84.5 -419.7 -169 -374.1 -216C-328.5 -263 -243.4 -272.5 -174.5 -302.2C-105.6 -332 -52.8 -382 0 -432L0 0Z" fill="#2E2C74"></path></g><g transform="translate(0, 0)"><path d="M432 0C425.1 83.1 418.1 166.2 374.1 216C330.1 265.8 249 282.2 180.5 312.6C112 343.1 56 387.5 0 432L0 0Z" fill="#2E2C74"></path></g></svg>