<?xml version="1.0" ?><svg viewBox="0 0 60 60" xmlns="http://www.w3.org/2000/svg"><rect fill="#fff" height="60" rx="10" width="60"/><path d="M52,29.5a1.5,1.5,0,0,1-1.061-.439L32.354,10.475A3.352,3.352,0,0,0,30,9.5a3.307,3.307,0,0,0-2.354.975L9.061,29.061a1.5,1.5,0,0,1-2.122-2.122L25.525,8.354a6.328,6.328,0,0,1,8.95,0L53.061,26.939A1.5,1.5,0,0,1,52,29.5Z" fill="#7bcdd1"/><path d="M30,14,14,30V52H24V42a6,6,0,0,1,6-6h0a6,6,0,0,1,6,6V52H46V30Z" fill="#bec6f4"/><path d="M46,53.5H36A1.5,1.5,0,0,1,34.5,52V42a4.5,4.5,0,0,0-9,0V52A1.5,1.5,0,0,1,24,53.5H14A1.5,1.5,0,0,1,12.5,52V30a1.5,1.5,0,0,1,.439-1.061l16-16a1.5,1.5,0,0,1,2.122,0l16,16A1.5,1.5,0,0,1,47.5,30V52A1.5,1.5,0,0,1,46,53.5Zm-8.5-3h7V30.621L30,16.121l-14.5,14.5V50.5h7V42a7.5,7.5,0,0,1,15,0Z" fill="#8d9cf4"/><path d="M36,53.5A1.5,1.5,0,0,1,34.5,52V42a4.5,4.5,0,0,0-9,0V52a1.5,1.5,0,0,1-3,0V42a7.5,7.5,0,0,1,15,0V52A1.5,1.5,0,0,1,36,53.5Z" fill="#7bcdd1"/></svg>