<svg id="Layer_1" data-name="Layer 1" xmlns="http://www.w3.org/2000/svg" viewBox="0 0 459 98"><defs><style>.cls-1{fill:#2e2c67;}.cls-2{fill:#e97a24;}</style></defs><path class="cls-1" d="M101.12,60.48H87.19V62q0,6.94,0,13.87c0,2.16-.7,2.84-2.88,2.85-3.52,0-7,0-10.56,0-4.11,0-7-2.74-7.07-6.84-.09-7.49,0-15,0-22.48,0-1.62.89-2.52,2.27-2.51s2.18.9,2.19,2.55q0,10.63,0,21.28c0,2.94.62,3.55,3.61,3.55h8V72.76q0-6.87,0-13.75c0-2.37.69-3.06,3.07-3.06H102.7c2.13,0,2.9.76,2.9,2.87,0,5,0,10.11,0,15.29.4,0,.74.09,1.08.09,2.56,0,5.12,0,7.68,0,2,0,2.83-.86,2.83-2.85q0-10.65,0-21.29c0-.39,0-.8,0-1.19a2.13,2.13,0,0,1,2-2,2.08,2.08,0,0,1,2.35,1.59,5.61,5.61,0,0,1,.13,1.42q0,10.63,0,21.28c0,4.75-2.76,7.53-7.49,7.54H103.87c-2,0-2.74-.75-2.75-2.75V60.48Z"/><path class="cls-1" d="M94.15,24.32,78.56,35.4,63.92,45.81a2.5,2.5,0,0,1-2.55.57,2.2,2.2,0,0,1-.74-3.64,8.89,8.89,0,0,1,1-.79L92.32,20.14c1.51-1.08,2.16-1.09,3.67,0q15.57,11.07,31.12,22.17a3.69,3.69,0,0,1,1.27,1.51,2,2,0,0,1-.79,2.42,2.14,2.14,0,0,1-2.58,0c-1.58-1.09-3.14-2.21-4.7-3.32L95.13,25Z"/><path class="cls-1" d="M71.11,23.81v6c0,2.13-.72,3.17-2.2,3.17s-2.26-1.09-2.27-3.15c0-2.54,0-5.09,0-7.64,0-2,.78-2.78,2.84-2.79q4.08,0,8.15,0c1.7,0,2.66.83,2.65,2.23s-1,2.21-2.7,2.22C75.49,23.82,73.38,23.81,71.11,23.81Z"/><path class="cls-2" d="M138.94,48.93q0-7,3.46-10.9a11.33,11.33,0,0,1,8.93-4,11.66,11.66,0,0,1,10.83,7,17.86,17.86,0,0,1,1.51,7.51,17.59,17.59,0,0,1-1.59,7.61,11.31,11.31,0,0,1-4.49,5.09A12.12,12.12,0,0,1,151.31,63a11.56,11.56,0,0,1-6.53-1.91,12,12,0,0,1-4.35-5.21A16.84,16.84,0,0,1,138.94,48.93Zm3.53.06q0,5.06,2.52,8a8.31,8.31,0,0,0,12.66,0q2.49-2.94,2.49-8.34a15.41,15.41,0,0,0-1.06-6A8.77,8.77,0,0,0,156,38.67a8,8,0,0,0-4.62-1.4,8.41,8.41,0,0,0-6.25,2.7C143.35,41.77,142.47,44.78,142.47,49Z"/><path class="cls-2" d="M167.68,62.56V42.29h2.85v2.88a6.63,6.63,0,0,1,6-3.34,7.33,7.33,0,0,1,3.12.66,5,5,0,0,1,2.12,1.73,7,7,0,0,1,1,2.54,20.79,20.79,0,0,1,.18,3.34V62.56h-3.18V50.23a9.86,9.86,0,0,0-.37-3.14A3.2,3.2,0,0,0,178,45.43a4,4,0,0,0-2.22-.62,4.93,4.93,0,0,0-3.5,1.39q-1.47,1.39-1.47,5.29V62.56Z"/><path class="cls-2" d="M187.69,62.56v-28h3.18v28Z"/><path class="cls-2" d="M195.81,38.53v-4H199v4Zm0,24V42.29H199V62.56Z"/><path class="cls-2" d="M203.82,62.56V42.29h2.85v2.88a6.62,6.62,0,0,1,6-3.34,7.33,7.33,0,0,1,3.12.66,5,5,0,0,1,2.12,1.73,7,7,0,0,1,1,2.54A20.79,20.79,0,0,1,219,50.1V62.56h-3.18V50.23a9.86,9.86,0,0,0-.37-3.14,3.25,3.25,0,0,0-1.31-1.66,4,4,0,0,0-2.22-.62,4.91,4.91,0,0,0-3.5,1.39Q207,47.6,207,51.49V62.56Z"/><path class="cls-2" d="M236.73,56l3.28.44a8.8,8.8,0,0,1-2.88,4.83,9.16,9.16,0,0,1-11.88-1q-2.4-2.74-2.4-7.68,0-5.12,2.43-7.94a7.93,7.93,0,0,1,6.31-2.83,7.74,7.74,0,0,1,6.14,2.77q2.39,2.76,2.38,7.79c0,.2,0,.51,0,.91h-14a8.18,8.18,0,0,0,1.74,5.12,5,5,0,0,0,3.92,1.77,4.62,4.62,0,0,0,3-1A6.72,6.72,0,0,0,236.73,56ZM226.3,50.48h10.46a7.2,7.2,0,0,0-1.2-3.84,4.73,4.73,0,0,0-3.93-2A4.88,4.88,0,0,0,228,46.24,6.59,6.59,0,0,0,226.3,50.48Z"/><path class="cls-1" d="M255,62.56v-28h18.7v3.3H258.44v8.57h14.3v3.28h-14.3v9.53h15.87v3.3Z"/><path class="cls-1" d="M281.22,54.16V50.71H291v3.45Z"/><path class="cls-1" d="M297.55,53.57l3.22-.31a8.26,8.26,0,0,0,1.07,3.45,5.9,5.9,0,0,0,2.6,2.17,9.13,9.13,0,0,0,4,.83,8.86,8.86,0,0,0,3.46-.63,4.84,4.84,0,0,0,2.23-1.72,4.21,4.21,0,0,0,.73-2.4,3.85,3.85,0,0,0-.7-2.3A5.31,5.31,0,0,0,311.8,51a42.53,42.53,0,0,0-4.61-1.36,22.49,22.49,0,0,1-5-1.75,7.31,7.31,0,0,1-2.76-2.6,6.85,6.85,0,0,1-.9-3.49,7.46,7.46,0,0,1,1.11-4,7,7,0,0,1,3.24-2.79,11.45,11.45,0,0,1,4.75-1,12.11,12.11,0,0,1,5.07,1,7.4,7.4,0,0,1,3.37,2.94,9,9,0,0,1,1.27,4.41l-3.28.27a5.89,5.89,0,0,0-1.79-4,6.59,6.59,0,0,0-4.5-1.35,6.85,6.85,0,0,0-4.53,1.23,3.82,3.82,0,0,0-1.42,3,3.32,3.32,0,0,0,1,2.48q1,1,5.16,2a32.83,32.83,0,0,1,5.72,1.78,8,8,0,0,1,3.33,2.86,7.35,7.35,0,0,1,1.08,4,8.06,8.06,0,0,1-4.58,7.28,11,11,0,0,1-5,1.1,13.83,13.83,0,0,1-5.88-1.11A8.46,8.46,0,0,1,299,58.6,9.92,9.92,0,0,1,297.55,53.57Z"/><path class="cls-1" d="M329.33,59.49l.46,3a11.2,11.2,0,0,1-2.4.31,5,5,0,0,1-2.68-.6,3.19,3.19,0,0,1-1.34-1.55,13.22,13.22,0,0,1-.39-4.06V45h-2.33V42.29H323v-5l3.16-2.06v7.08h3.19V45h-3.19V56.81a6.62,6.62,0,0,0,.16,1.89,1.45,1.45,0,0,0,.55.67,2,2,0,0,0,1.09.25A11,11,0,0,0,329.33,59.49Z"/><path class="cls-1" d="M331.25,52.42c0-3.75,1-6.53,2.89-8.34a8.36,8.36,0,0,1,5.9-2.25,8.11,8.11,0,0,1,6.31,2.74,11,11,0,0,1,2.45,7.57,14.37,14.37,0,0,1-1.08,6.15,8.11,8.11,0,0,1-3.16,3.49A8.71,8.71,0,0,1,340,63a8.08,8.08,0,0,1-6.36-2.73Q331.25,57.56,331.25,52.42Zm3.26,0c0,2.6.53,4.54,1.57,5.83a5,5,0,0,0,7.89,0c1-1.29,1.57-3.27,1.57-5.93a8.86,8.86,0,0,0-1.58-5.7A4.86,4.86,0,0,0,340,44.68a4.91,4.91,0,0,0-4,1.92C335,47.89,334.51,49.83,334.51,52.42Z"/><path class="cls-1" d="M352.49,62.56V42.29h2.85v3.07a8.51,8.51,0,0,1,2-2.84,3.35,3.35,0,0,1,2-.69,5.83,5.83,0,0,1,3.26,1.11l-1.09,3.19a4.25,4.25,0,0,0-2.33-.75,2.91,2.91,0,0,0-1.87.68,3.74,3.74,0,0,0-1.18,1.88,14.52,14.52,0,0,0-.53,4V62.56Z"/><path class="cls-1" d="M377.37,56l3.28.44a8.73,8.73,0,0,1-2.87,4.83,9.16,9.16,0,0,1-11.88-1c-1.6-1.83-2.41-4.39-2.41-7.68s.81-6.06,2.44-7.94a7.91,7.91,0,0,1,6.31-2.83,7.74,7.74,0,0,1,6.14,2.77q2.39,2.76,2.38,7.79c0,.2,0,.51,0,.91h-14a8.18,8.18,0,0,0,1.75,5.12,5,5,0,0,0,3.92,1.77,4.63,4.63,0,0,0,3-1A6.63,6.63,0,0,0,377.37,56ZM367,50.48h10.46a7.2,7.2,0,0,0-1.2-3.84,4.73,4.73,0,0,0-3.93-2,4.86,4.86,0,0,0-3.68,1.58A6.59,6.59,0,0,0,367,50.48Z"/><rect class="cls-1" x="253.99" y="65.15" width="127.79" height="2.3"/></svg>