<svg width="832" height="419" viewBox="0 0 832 419" fill="none" xmlns="http://www.w3.org/2000/svg">
<g clip-path="url(#clip0_33_140)">
<path d="M751.652 340.807H119.049C110.962 340.798 103.209 337.585 97.4907 331.872C91.7723 326.159 88.5557 318.414 88.5466 310.335V70.5319C88.5558 62.453 91.7724 54.7076 97.4908 48.9949C103.209 43.2823 110.962 40.0689 119.049 40.0597H751.652C759.739 40.0689 767.492 43.2823 773.21 48.9949C778.929 54.7076 782.146 62.453 782.155 70.5319V310.335C782.146 318.414 778.929 326.159 773.211 331.872C767.492 337.585 759.739 340.798 751.652 340.807Z" fill="white"/>
<path d="M751.652 340.807H119.049C110.962 340.798 103.209 337.585 97.4907 331.872C91.7723 326.159 88.5557 318.414 88.5466 310.335V70.5319C88.5558 62.453 91.7724 54.7076 97.4908 48.9949C103.209 43.2823 110.962 40.0689 119.049 40.0597H751.652C759.739 40.0689 767.492 43.2823 773.21 48.9949C778.929 54.7076 782.146 62.453 782.155 70.5319V310.335C782.146 318.414 778.929 326.159 773.211 331.872C767.492 337.585 759.739 340.798 751.652 340.807ZM119.049 42.7094C111.663 42.7094 104.579 45.6407 99.3562 50.8584C94.1333 56.0762 91.199 63.1529 91.199 70.5319V310.335C91.199 313.989 91.9194 317.607 93.319 320.982C94.7186 324.358 96.7701 327.425 99.3562 330.009C101.942 332.592 105.013 334.641 108.392 336.04C111.771 337.438 115.392 338.158 119.049 338.158H751.652C755.309 338.158 758.931 337.438 762.31 336.04C765.689 334.641 768.759 332.592 771.345 330.009C773.931 327.425 775.983 324.358 777.382 320.982C778.782 317.607 779.502 313.989 779.502 310.335V219.916C779.502 172.918 760.814 127.845 727.547 94.6122C694.281 61.3794 649.163 42.7094 602.117 42.7094H119.049Z" fill="#E6E6E6"/>
<path d="M68.9951 391.858C69.2538 390.081 67.3914 388.34 64.8354 387.969C62.2793 387.597 59.9975 388.736 59.7388 390.512C59.4801 392.289 61.3424 394.03 63.8985 394.401C66.4545 394.773 68.7364 393.634 68.9951 391.858Z" fill="white"/>
<path d="M99.4278 388.891C99.6865 387.115 97.8242 385.374 95.2681 385.002C92.712 384.631 90.4302 385.769 90.1715 387.546C89.9128 389.322 91.7752 391.063 94.3312 391.435C96.8873 391.806 99.1691 390.667 99.4278 388.891Z" fill="#3F3D56"/>
<path d="M60.6618 367.245C60.9205 365.468 59.0581 363.727 56.5021 363.356C53.946 362.984 51.6642 364.123 51.4055 365.899C51.1467 367.676 53.0091 369.417 55.5652 369.788C58.1212 370.16 60.4031 369.021 60.6618 367.245Z" fill="#FF6584"/>
<path d="M47.4379 357.163C47.4503 355.532 46.5397 354.203 45.4041 354.195C44.2685 354.186 43.338 355.501 43.3256 357.132C43.3133 358.763 44.2238 360.092 45.3594 360.1C46.495 360.109 47.4256 358.794 47.4379 357.163Z" fill="#E6E6E6"/>
<path d="M42.9535 338.384C42.9658 336.754 42.0553 335.425 40.9197 335.416C39.7841 335.408 38.8535 336.723 38.8412 338.353C38.8289 339.984 39.7394 341.313 40.875 341.322C42.0106 341.33 42.9411 340.015 42.9535 338.384Z" fill="#3F3D56"/>
<path d="M77.826 371.433C77.8384 369.803 76.9278 368.474 75.7922 368.465C74.6567 368.456 73.7261 369.771 73.7138 371.402C73.7014 373.033 74.612 374.362 75.7475 374.371C76.8831 374.379 77.8137 373.064 77.826 371.433Z" fill="#E6E6E6"/>
<path d="M63.1196 378.769C63.132 377.138 62.2214 375.809 61.0858 375.8C59.9502 375.792 59.0197 377.107 59.0073 378.738C58.995 380.368 59.9055 381.697 61.0411 381.706C62.1767 381.714 63.1073 380.399 63.1196 378.769Z" fill="#FF6584"/>
<path d="M83.5915 392.326C83.6038 390.696 82.6932 389.367 81.5576 389.358C80.422 389.349 79.4915 390.665 79.4791 392.295C79.4668 393.926 80.3773 395.255 81.5129 395.264C82.6485 395.272 83.5791 393.957 83.5915 392.326Z" fill="#3F3D56"/>
<path d="M804.217 8.90571C804.779 6.68772 802.648 4.23469 799.457 3.42668C796.265 2.61867 793.222 3.76166 792.659 5.97966C792.096 8.19766 794.228 10.6507 797.419 11.4588C800.611 12.2668 803.654 11.1237 804.217 8.90571Z" fill="white"/>
<path d="M765.241 8.6548C765.804 6.4368 763.673 3.98371 760.481 3.17571C757.29 2.3677 754.246 3.51075 753.684 5.72875C753.121 7.94675 755.252 10.3998 758.444 11.2078C761.635 12.0158 764.679 10.8728 765.241 8.6548Z" fill="#3F3D56"/>
<path d="M811.531 41.2094C812.093 38.9914 809.962 36.5384 806.771 35.7304C803.579 34.9224 800.536 36.0654 799.973 38.2834C799.41 40.5014 801.542 42.9545 804.733 43.7625C807.925 44.5705 810.968 43.4274 811.531 41.2094Z" fill="#FF6584"/>
<path d="M820.616 53.3903C820.847 51.3244 819.869 49.5195 818.43 49.3589C816.991 49.1984 815.638 50.7429 815.407 52.8088C815.176 54.8747 816.155 56.6796 817.593 56.8402C819.032 57.0008 820.385 55.4562 820.616 53.3903Z" fill="#E6E6E6"/>
<path d="M823.826 77.7853C824.058 75.7194 823.079 73.9145 821.64 73.7539C820.201 73.5933 818.848 75.1379 818.617 77.2038C818.386 79.2697 819.365 81.0746 820.803 81.2352C822.242 81.3958 823.595 79.8513 823.826 77.7853Z" fill="#3F3D56"/>
<path d="M783.974 31.2918C784.205 29.2259 783.227 27.421 781.788 27.2604C780.349 27.0998 778.996 28.6444 778.765 30.7103C778.534 32.7762 779.513 34.5811 780.951 34.7417C782.39 34.9023 783.743 33.3577 783.974 31.2918Z" fill="#E6E6E6"/>
<path d="M803.589 23.9306C803.82 21.8647 802.841 20.0598 801.402 19.8992C799.964 19.7386 798.61 21.2832 798.379 23.3491C798.148 25.415 799.127 27.2199 800.565 27.3805C802.004 27.5411 803.358 25.9965 803.589 23.9306Z" fill="#FF6584"/>
<path d="M779.425 4.0428C779.656 1.9769 778.677 0.171987 777.238 0.0114034C775.8 -0.14918 774.446 1.39538 774.215 3.46127C773.984 5.52717 774.963 7.33208 776.402 7.49267C777.84 7.65325 779.194 6.10869 779.425 4.0428Z" fill="#3F3D56"/>
<path d="M341.575 185.553C341.61 209.552 332.736 232.711 316.669 250.552V250.565C314.397 253.089 311.998 255.494 309.481 257.773C306.905 260.103 304.204 262.293 301.391 264.331C299.428 265.762 297.412 267.113 295.344 268.385C292.89 269.908 290.366 271.317 287.771 272.611C285.848 273.578 283.885 274.479 281.882 275.314C269.929 280.333 257.092 282.914 244.125 282.906C236.802 282.914 229.502 282.096 222.362 280.468C219.06 279.718 215.802 278.789 212.601 277.686C211.368 277.275 210.135 276.824 208.914 276.348C201.516 273.491 194.5 269.73 188.027 265.152C174.343 255.528 163.371 242.545 156.168 227.455C148.965 212.365 145.773 195.676 146.9 178.996C148.027 162.316 153.434 146.207 162.602 132.221C171.77 118.235 184.389 106.843 199.243 99.1425C214.097 91.4423 230.685 87.6932 247.411 88.2566C264.136 88.82 280.434 93.6767 294.735 102.359C309.036 111.041 320.858 123.256 329.062 137.828C337.266 152.399 341.576 168.835 341.575 185.553Z" fill="#F2F2F2"/>
<path d="M633.236 113.186H464.807C463.401 113.184 462.054 112.625 461.061 111.631C460.068 110.638 459.51 109.291 459.51 107.887C459.51 106.483 460.068 105.136 461.061 104.142C462.054 103.149 463.401 102.589 464.807 102.587H633.236C634.643 102.587 635.992 103.146 636.987 104.139C637.981 105.133 638.54 106.481 638.54 107.887C638.54 109.292 637.981 110.64 636.987 111.634C635.992 112.628 634.643 113.186 633.236 113.186Z" fill="#E97A24"/>
<path d="M633.236 184.73H464.807C463.401 184.728 462.054 184.168 461.061 183.175C460.068 182.181 459.51 180.834 459.51 179.43C459.51 178.026 460.068 176.679 461.061 175.686C462.054 174.692 463.401 174.133 464.807 174.131H633.236C634.641 174.133 635.988 174.692 636.982 175.686C637.975 176.679 638.533 178.026 638.533 179.43C638.533 180.834 637.975 182.181 636.982 183.175C635.988 184.168 634.641 184.728 633.236 184.73Z" fill="#E6E6E6"/>
<path d="M633.236 256.273H464.807C463.401 256.271 462.054 255.712 461.061 254.718C460.068 253.725 459.51 252.378 459.51 250.974C459.51 249.57 460.068 248.223 461.061 247.229C462.054 246.236 463.401 245.676 464.807 245.674H633.236C634.643 245.674 635.992 246.233 636.987 247.227C637.981 248.22 638.54 249.568 638.54 250.974C638.54 252.379 637.981 253.727 636.987 254.721C635.992 255.715 634.643 256.273 633.236 256.273Z" fill="#E6E6E6"/>
<path d="M212.155 414.373C193.14 389.107 182.15 360.853 181.79 328.642C181.178 326.906 181.279 324.998 182.073 323.337C182.866 321.676 184.287 320.397 186.024 319.781L250.835 296.872C252.572 296.26 254.482 296.362 256.145 297.155C257.807 297.948 259.087 299.367 259.704 301.101L290.068 386.833C290.681 388.568 290.579 390.476 289.786 392.137C288.992 393.798 287.571 395.077 285.835 395.693L221.024 418.602C219.286 419.214 217.377 419.112 215.714 418.32C214.051 417.527 212.771 416.107 212.155 414.373Z" fill="#E6E6E6"/>
<path d="M207.955 386.721C196.519 375.17 191.623 354.568 188.434 331.606C187.86 329.98 187.955 328.193 188.698 326.637C189.442 325.082 190.772 323.884 192.398 323.307L248.098 303.619C249.725 303.046 251.514 303.141 253.071 303.883C254.628 304.626 255.827 305.955 256.405 307.58L283.425 383.869C283.999 385.494 283.903 387.281 283.16 388.837C282.417 390.392 281.086 391.59 279.46 392.167L244.955 404.363C237.706 406.916 229.74 406.493 222.803 403.185C215.867 399.878 210.527 393.957 207.955 386.721Z" fill="white"/>
<path d="M257.15 348.677L213.762 364.149C213.42 364.271 213.057 364.324 212.695 364.306C212.332 364.288 211.977 364.199 211.649 364.043C211.321 363.888 211.027 363.67 210.783 363.401C210.539 363.132 210.351 362.818 210.229 362.476C210.107 362.135 210.054 361.773 210.072 361.411C210.09 361.048 210.179 360.693 210.335 360.366C210.49 360.038 210.709 359.744 210.978 359.501C211.247 359.257 211.561 359.069 211.903 358.947L255.292 343.475C255.982 343.229 256.742 343.267 257.405 343.581C258.067 343.894 258.578 344.458 258.824 345.148C259.071 345.838 259.033 346.597 258.719 347.259C258.405 347.92 257.841 348.431 257.15 348.677Z" fill="#E97A24"/>
<path d="M218.211 346.483L208.666 349.886C208.324 350.009 207.961 350.063 207.598 350.045C207.235 350.027 206.88 349.938 206.551 349.783C206.223 349.627 205.929 349.409 205.685 349.14C205.441 348.871 205.253 348.557 205.131 348.215C205.008 347.873 204.955 347.511 204.973 347.148C204.991 346.786 205.081 346.431 205.237 346.103C205.392 345.775 205.611 345.481 205.881 345.238C206.15 344.994 206.465 344.807 206.807 344.685L216.353 341.281C216.695 341.159 217.057 341.105 217.42 341.123C217.783 341.141 218.139 341.23 218.467 341.385C218.795 341.54 219.09 341.758 219.334 342.027C219.577 342.296 219.766 342.611 219.888 342.953C220.01 343.294 220.064 343.657 220.045 344.019C220.027 344.382 219.938 344.737 219.782 345.065C219.626 345.393 219.407 345.687 219.138 345.93C218.868 346.173 218.553 346.361 218.211 346.483Z" fill="#E97A24"/>
<path d="M265.321 371.544L221.932 387.015C221.242 387.261 220.482 387.222 219.821 386.909C219.159 386.595 218.649 386.031 218.402 385.342C218.156 384.653 218.194 383.894 218.507 383.233C218.821 382.571 219.384 382.061 220.074 381.814L263.462 366.342C264.152 366.097 264.912 366.135 265.574 366.449C266.236 366.763 266.746 367.326 266.992 368.015C267.238 368.705 267.201 369.464 266.887 370.125C266.574 370.787 266.01 371.297 265.321 371.544Z" fill="#E97A24"/>
<path d="M261.236 360.11L217.847 375.582C217.157 375.828 216.397 375.791 215.734 375.477C215.072 375.163 214.561 374.6 214.314 373.91C214.068 373.22 214.106 372.461 214.42 371.799C214.734 371.137 215.298 370.627 215.989 370.381L259.377 354.909C259.719 354.787 260.082 354.733 260.445 354.751C260.807 354.768 261.163 354.857 261.491 355.013C261.82 355.168 262.114 355.386 262.358 355.655C262.602 355.924 262.79 356.239 262.912 356.58C263.034 356.922 263.088 357.284 263.07 357.647C263.051 358.009 262.962 358.365 262.806 358.692C262.65 359.02 262.432 359.314 262.162 359.557C261.893 359.801 261.578 359.989 261.236 360.11Z" fill="#E97A24"/>
<path d="M221.836 141.509C223.249 152.898 231.149 162.288 242.636 162.288C248.152 162.288 253.442 160.099 257.343 156.202C261.243 152.305 263.435 147.02 263.435 141.509C263.435 130.034 254.073 121.792 242.636 120.731C230.499 119.605 220.022 126.888 221.836 141.509Z" fill="#2F2E41"/>
<path d="M260.743 281.488C248.007 283.675 234.964 283.328 222.362 280.468C228.343 277.169 246.486 279.196 260.743 281.488Z" fill="#2F2E41"/>
<path d="M179.79 318.036L189.781 293.915L197.653 298.284L192.899 322.821C193.375 324.375 193.407 326.032 192.993 327.604C192.578 329.176 191.733 330.601 190.552 331.719C189.371 332.838 187.901 333.605 186.308 333.935C184.714 334.264 183.061 334.143 181.532 333.585C180.004 333.027 178.661 332.055 177.656 330.777C176.651 329.498 176.022 327.965 175.841 326.35C175.66 324.734 175.934 323.1 176.631 321.631C177.329 320.163 178.423 318.918 179.79 318.036Z" fill="#FFB6B6"/>
<path d="M283.142 252.765V252.778C282.784 261.178 282.294 269.167 281.883 275.314C269.929 280.333 257.092 282.914 244.125 282.906C236.802 282.914 229.502 282.096 222.362 280.468C219.061 279.718 215.802 278.789 212.601 277.686C213.047 277.398 213.529 277.171 214.034 277.01C218.808 275.394 214.087 273.923 214.127 272.386C214.272 266.769 215.824 260.025 217.827 253.56L208.914 276.347L204.273 288.192C204.273 288.192 204.432 298.42 201.488 295.293C198.53 292.167 198.742 302.289 198.742 302.289C197.823 302.943 197.032 303.76 196.408 304.7C196.146 305.123 196.047 305.627 196.13 306.117V306.131C196.263 306.516 196.525 306.844 196.872 307.058C198.875 308.409 195.997 311.987 194.724 313.404C194.379 313.789 194.154 314.014 194.154 314.014L181.913 313.139V312.901C181.966 311.457 182.297 303.852 184.194 302.037C186.276 300.036 185.255 296.87 185.255 296.87C185.255 296.87 190.692 292.061 187.045 288.152C185.586 286.576 186.236 277.235 188.027 265.152C191.939 238.496 201.315 198.484 205.373 199.054C206.21 194.996 208.152 191.247 210.986 188.222C213.82 185.197 217.436 183.012 221.434 181.91L234.656 178.28L237.017 168.966H255.637L258.873 175.087L272.44 181.208L272.612 181.287L273.037 181.473L273.196 181.976C273.196 181.976 273.183 181.99 273.196 181.99L280.742 205.665C284.137 209.56 284.005 232.322 283.142 252.765Z" fill="#E97A24"/>
<path d="M314.849 300.472L302.241 277.608L310.574 274.198L326.78 293.237C328.292 293.837 329.607 294.847 330.577 296.152C331.546 297.458 332.132 299.008 332.268 300.628C332.404 302.248 332.085 303.873 331.347 305.322C330.609 306.771 329.481 307.986 328.09 308.829C326.699 309.673 325.1 310.112 323.473 310.097C321.846 310.083 320.255 309.615 318.879 308.747C317.504 307.878 316.398 306.644 315.686 305.182C314.974 303.72 314.684 302.089 314.849 300.472Z" fill="#FFB6B6"/>
<path d="M272.442 181.025C274.685 185.051 295.196 195.405 291.641 205.799C291.641 205.799 310.911 266.025 313.417 265.632C315.922 265.239 318.368 271.459 318.368 271.459C318.368 271.459 317.836 275.52 319.399 273.832C320.962 272.145 320.588 276.568 320.588 276.568C320.588 276.568 319.839 280.471 321.824 279.41C323.808 278.349 321.199 285.819 321.199 285.819L309.273 291.429L307.007 288.06C307.007 288.06 302.165 287.138 304.443 286.408C306.722 285.679 302.301 283.222 302.301 283.222C302.301 283.222 297.675 280.082 298.32 274.881C298.964 269.68 286.317 259.456 286.317 259.456C277.622 242.307 272.865 224.7 272.882 206.537L272.442 181.025Z" fill="#E97A24"/>
<path d="M244.935 163.521C255.121 163.521 263.379 155.272 263.379 145.096C263.379 134.92 255.121 126.671 244.935 126.671C234.749 126.671 226.491 134.92 226.491 145.096C226.491 155.272 234.749 163.521 244.935 163.521Z" fill="#FFB6B6"/>
<path d="M225.836 147.104C226.42 151.107 229.836 156.694 229.036 156.694C228.236 156.694 222.548 140.188 228.236 139.112C232.362 138.331 233.284 139.016 237.14 137.346L236.596 137.857C239.148 139.711 242.7 138.569 245.611 137.362C248.531 136.163 252.075 135.02 254.635 136.866C256.243 138.025 256.923 140.039 257.923 141.749C258.923 143.467 260.771 145.09 262.675 144.562C263.417 144.276 264.049 143.762 264.48 143.094C264.911 142.427 265.119 141.639 265.075 140.846C265.067 139.264 263.004 137.759 263.699 136.339C265.757 132.132 263.906 129.264 259.419 127.284C257.787 127.037 256.155 126.784 254.523 126.525C255.378 125.342 256.415 124.301 257.595 123.44C257.096 122.163 256.234 121.06 255.115 120.268C253.732 119.626 252.191 119.403 250.683 119.628C247.307 119.804 243.934 119.98 240.564 120.156C238.053 120.111 235.562 120.596 233.252 121.578C230.468 123.009 228.644 125.798 227.316 128.635C224.34 135.012 224.812 140.143 225.836 147.104Z" fill="#2F2E41"/>
<path d="M687.211 135.018H409.839C409.534 135.018 409.241 134.897 409.025 134.682C408.809 134.466 408.688 134.173 408.688 133.868C408.688 133.563 408.809 133.27 409.025 133.055C409.241 132.839 409.534 132.718 409.839 132.718H687.211C687.516 132.718 687.809 132.839 688.025 133.055C688.241 133.27 688.362 133.563 688.362 133.868C688.362 134.173 688.241 134.466 688.025 134.682C687.809 134.897 687.516 135.018 687.211 135.018Z" fill="#E6E6E6"/>
<path d="M687.211 206.348H409.839C409.534 206.348 409.241 206.227 409.025 206.011C408.809 205.795 408.688 205.503 408.688 205.198C408.688 204.892 408.809 204.6 409.025 204.384C409.241 204.168 409.534 204.047 409.839 204.047H687.211C687.516 204.047 687.809 204.168 688.025 204.384C688.241 204.6 688.362 204.892 688.362 205.198C688.362 205.503 688.241 205.795 688.025 206.011C687.809 206.227 687.516 206.348 687.211 206.348Z" fill="#E6E6E6"/>
<path d="M687.211 277.677H409.839C409.534 277.677 409.241 277.556 409.025 277.34C408.809 277.124 408.688 276.832 408.688 276.527C408.688 276.222 408.809 275.929 409.025 275.713C409.241 275.497 409.534 275.376 409.839 275.376H687.211C687.516 275.376 687.809 275.497 688.025 275.713C688.241 275.929 688.362 276.222 688.362 276.527C688.362 276.832 688.241 277.124 688.025 277.34C687.809 277.556 687.516 277.677 687.211 277.677Z" fill="#E6E6E6"/>
<path d="M728.495 273.117C718.341 273.117 708.521 269.494 700.803 262.901C698.229 260.699 695.486 256.872 692.651 251.526C690.841 248.083 689.828 244.278 689.685 240.391C689.542 236.505 690.273 232.636 691.825 229.069C690.329 230.589 688.675 231.944 686.891 233.112L685.989 233.712L685.937 232.631C685.902 231.928 685.885 231.228 685.885 230.549C685.885 226.55 688.913 222.492 687.516 218.795C681.631 203.215 662.963 187.731 690.018 163.619C692.521 161.388 689.178 156.929 689.178 153.554C689.178 120.48 735.969 63.2614 749.231 93.5727C765.586 130.954 793.763 126.956 806.246 134.677L806.427 135.223L805.893 135.439C803.161 136.586 800.284 137.35 797.342 137.711C800.478 138.35 803.678 138.617 806.877 138.509L807.373 138.491L807.494 138.973C808.684 143.742 809.285 148.639 809.284 153.554L809.282 154.085C809.271 157.818 810.047 161.512 811.561 164.925C813.075 168.338 815.292 171.395 818.067 173.895C822.451 177.888 825.954 182.749 828.353 188.17C830.752 193.59 831.994 199.45 832 205.377C832 212.388 827.23 221.592 823.228 228.079C822.214 229.731 820.838 231.132 819.204 232.178C817.571 233.223 815.721 233.885 813.795 234.115C811.97 234.345 810.117 234.171 808.367 233.606C806.617 233.041 805.012 232.099 803.667 230.846C805.561 234.651 808.029 238.142 810.986 241.197L811.532 241.759L810.854 242.154C804.339 245.949 796.932 247.947 789.39 247.945L788.948 247.943C783.419 247.886 777.933 248.932 772.813 251.02C767.693 253.108 763.042 256.195 759.131 260.101C755.149 264.199 750.388 267.461 745.127 269.696C739.867 271.931 734.212 273.094 728.495 273.117Z" fill="#E6E6E6"/>
<path d="M713.836 340.528C713.651 340.528 713.473 340.461 713.334 340.34C713.195 340.22 713.104 340.053 713.078 339.87C711.074 322.019 710.954 304.007 712.72 286.131C715.365 257.931 723.859 217.312 749.303 183.953C749.364 183.873 749.441 183.806 749.528 183.756C749.615 183.705 749.711 183.672 749.81 183.659C749.91 183.645 750.012 183.652 750.109 183.677C750.206 183.703 750.297 183.748 750.377 183.808C750.457 183.869 750.525 183.946 750.575 184.032C750.626 184.119 750.659 184.215 750.672 184.315C750.686 184.415 750.68 184.516 750.654 184.613C750.628 184.71 750.583 184.801 750.522 184.881C725.298 217.952 716.873 258.273 714.246 286.274C712.49 304.03 712.607 321.922 714.595 339.655C714.611 339.763 714.603 339.874 714.571 339.979C714.54 340.084 714.487 340.182 714.415 340.264C714.343 340.347 714.254 340.414 714.154 340.459C714.054 340.505 713.945 340.528 713.836 340.528Z" fill="#3F3D56"/>
<path d="M734.6 231.008C734.438 231.008 734.28 230.957 734.149 230.862C734.018 230.767 733.92 230.633 733.87 230.479C733.82 230.326 733.82 230.16 733.87 230.006C733.92 229.852 734.018 229.718 734.149 229.623C741.399 224.721 749.231 220.738 757.465 217.766C770.329 213.061 789.89 208.796 810.029 215.199C810.124 215.229 810.213 215.278 810.29 215.343C810.367 215.408 810.431 215.487 810.477 215.576C810.523 215.666 810.551 215.763 810.56 215.863C810.568 215.964 810.557 216.064 810.526 216.16C810.496 216.256 810.447 216.345 810.382 216.422C810.317 216.498 810.238 216.562 810.148 216.608C810.059 216.654 809.961 216.682 809.861 216.691C809.761 216.699 809.66 216.688 809.564 216.657C789.838 210.386 770.631 214.581 757.992 219.204C749.89 222.125 742.184 226.041 735.05 230.862C734.919 230.957 734.761 231.008 734.6 231.008Z" fill="#3F3D56"/>
<path d="M699.527 143.744C699.516 143.583 699.555 143.422 699.641 143.284C699.726 143.147 699.853 143.04 700.003 142.979C700.153 142.918 700.318 142.906 700.475 142.945C700.632 142.984 700.773 143.071 700.878 143.195C706.294 150.066 710.835 157.583 714.395 165.573C720.019 178.052 725.686 197.236 720.744 217.763C720.72 217.861 720.678 217.953 720.619 218.035C720.56 218.117 720.485 218.186 720.399 218.238C720.313 218.291 720.218 218.326 720.118 218.342C720.019 218.358 719.917 218.354 719.819 218.33C719.721 218.307 719.629 218.264 719.547 218.205C719.466 218.146 719.397 218.071 719.344 217.985C719.292 217.899 719.257 217.803 719.241 217.704C719.225 217.604 719.23 217.503 719.254 217.405C724.094 197.299 718.523 178.463 712.997 166.202C709.498 158.34 705.033 150.943 699.706 144.182C699.602 144.058 699.539 143.905 699.527 143.744Z" fill="#3F3D56"/>
<path d="M72.8688 257.801C68.9583 253.895 64.3068 250.808 59.1868 248.72C54.0668 246.633 48.5813 245.587 43.0515 245.644L42.6098 245.645C35.0682 245.648 27.6611 243.649 21.1462 239.854L20.4683 239.46L21.0143 238.898C23.9704 235.842 26.4388 232.351 28.3329 228.546C26.9876 229.799 25.3832 230.742 23.633 231.306C21.8829 231.871 20.0299 232.045 18.2051 231.815C16.2786 231.585 14.4292 230.923 12.7955 229.878C11.1617 228.832 9.78614 227.431 8.77192 225.779C4.77013 219.292 -6.10352e-05 210.089 -6.10352e-05 203.077C0.00616676 197.15 1.24831 191.29 3.64721 185.87C6.0461 180.45 9.54914 175.588 13.933 171.595C16.7084 169.095 18.9252 166.039 20.4389 162.625C21.9526 159.212 22.7292 155.519 22.7181 151.785L22.7159 151.254C22.7152 146.339 23.3164 141.442 24.5062 136.673L24.627 136.192L25.123 136.209C28.3215 136.318 31.5217 136.05 34.6575 135.411C31.7161 135.05 28.8386 134.286 26.1067 133.139L25.5731 132.923L25.7542 132.377C38.237 124.656 66.4142 128.654 82.7691 91.2729C96.0307 60.9616 142.822 118.18 142.822 151.254C142.822 154.629 139.479 159.088 141.982 161.319C169.036 185.432 150.369 200.915 144.483 216.495C143.087 220.192 146.115 224.25 146.115 228.249C146.115 228.928 146.098 229.628 146.063 230.331L146.011 231.412L145.109 230.812C143.325 229.644 141.67 228.289 140.175 226.769C141.726 230.336 142.458 234.205 142.315 238.091C142.172 241.978 141.158 245.783 139.349 249.226C136.514 254.572 133.771 258.4 131.196 260.601C122.95 267.651 112.318 271.288 101.476 270.768C90.6345 270.247 80.4012 265.609 72.8688 257.801Z" fill="#E6E6E6"/>
<path d="M118.164 338.228C118.349 338.228 118.527 338.161 118.666 338.041C118.805 337.92 118.896 337.753 118.922 337.571C120.926 319.719 121.046 301.707 119.279 283.831C116.635 255.631 108.141 215.013 82.6965 181.654C82.6355 181.574 82.5594 181.506 82.4724 181.456C82.3854 181.405 82.2893 181.372 82.1896 181.359C82.0898 181.345 81.9884 181.352 81.8911 181.377C81.7938 181.403 81.7026 181.448 81.6225 181.509C81.5425 181.57 81.4752 181.646 81.4246 181.733C81.374 181.82 81.341 181.916 81.3276 182.015C81.3141 182.115 81.3204 182.216 81.3461 182.313C81.3719 182.41 81.4165 182.502 81.4775 182.582C106.702 215.653 115.127 255.973 117.754 283.974C119.51 301.731 119.393 319.623 117.405 337.355C117.389 337.463 117.397 337.574 117.429 337.679C117.46 337.784 117.513 337.882 117.585 337.965C117.657 338.047 117.746 338.114 117.846 338.159C117.946 338.205 118.054 338.228 118.164 338.228Z" fill="#3F3D56"/>
<path d="M97.4003 228.708C97.5622 228.708 97.7199 228.657 97.851 228.562C97.982 228.467 98.0795 228.333 98.1296 228.18C98.1797 228.026 98.1798 227.86 98.1298 227.706C98.0798 227.553 97.9824 227.418 97.8515 227.323C90.6014 222.421 82.7692 218.438 74.5352 215.466C61.6712 210.761 42.1097 206.496 21.9714 212.899C21.8755 212.929 21.7865 212.978 21.7096 213.043C21.6327 213.108 21.5694 213.187 21.5231 213.277C21.4769 213.366 21.4487 213.463 21.4402 213.564C21.4317 213.664 21.4431 213.765 21.4736 213.86C21.5041 213.956 21.5532 214.045 21.6181 214.122C21.683 214.199 21.7624 214.262 21.8518 214.308C21.9411 214.354 22.0387 214.382 22.139 214.391C22.2393 214.399 22.3402 214.388 22.4361 214.358C42.1618 208.086 61.3688 212.281 74.0083 216.904C82.1099 219.825 89.8164 223.741 96.9504 228.562C97.0811 228.657 97.2386 228.708 97.4003 228.708Z" fill="#3F3D56"/>
<path d="M132.473 141.444C132.484 141.283 132.445 141.122 132.359 140.985C132.274 140.847 132.147 140.74 131.997 140.679C131.847 140.618 131.682 140.606 131.525 140.645C131.368 140.684 131.227 140.771 131.122 140.895C125.706 147.766 121.165 155.283 117.605 163.273C111.981 175.752 106.314 194.936 111.256 215.463C111.28 215.561 111.322 215.654 111.381 215.735C111.44 215.817 111.515 215.886 111.601 215.939C111.687 215.991 111.782 216.027 111.882 216.042C111.981 216.058 112.083 216.054 112.181 216.031C112.279 216.007 112.371 215.964 112.453 215.905C112.534 215.846 112.603 215.771 112.656 215.685C112.708 215.599 112.743 215.504 112.759 215.404C112.774 215.305 112.77 215.203 112.746 215.105C107.906 194.999 113.477 176.163 119.003 163.902C122.502 156.04 126.967 148.643 132.294 141.882C132.398 141.758 132.461 141.605 132.473 141.444Z" fill="#3F3D56"/>
</g>
<defs>
<clipPath id="clip0_33_140">
<rect width="832" height="419" fill="white"/>
</clipPath>
</defs>
</svg>
